<svg width="40" height="40" viewBox="0 0 40 40" fill="none" xmlns="http://www.w3.org/2000/svg">
<g clip-path="url(#clip0)">
<path d="M32.6875 0H7.3125C3.25 0 0 3.25 0 7.3125V23.75C0 24.125 0.25 24.375 0.625 24.375C1 24.375 1.25 24.125 1.25 23.75V20.625H3.125C3.5 20.625 3.75 20.375 3.75 20C3.75 19.625 3.5 19.375 3.125 19.375H1.25V7.3125C1.25 3.9375 3.9375 1.25 7.3125 1.25H19.375V3.125C19.375 3.5 19.625 3.75 20 3.75C20.375 3.75 20.625 3.5 20.625 3.125V1.25H32.6875C36 1.25 38.75 3.9375 38.75 7.3125V19.375H36.875C36.5 19.375 36.25 19.625 36.25 20C36.25 20.375 36.5 20.625 36.875 20.625H38.75V32.6875C38.75 36 36.0625 38.75 32.6875 38.75H20.625V36.875C20.625 36.5 20.375 36.25 20 36.25C19.625 36.25 19.375 36.5 19.375 36.875V38.75H16.25C15.875 38.75 15.625 39 15.625 39.375C15.625 39.75 15.875 40 16.25 40H32.6875C36.75 40 40 36.75 40 32.6875V7.3125C40 3.25 36.75 0 32.6875 0Z" fill="#D62D30" stroke="#D62D30" stroke-width="0.5"/>
<path d="M20 8.125C19.625 8.125 19.375 8.375 19.375 8.75V20.125C19.375 20.3125 19.5 20.5 19.625 20.625L25.5 24.9375L25.6875 25.0625L32.25 29.875C32.375 29.9375 32.5 30 32.625 30C32.8125 30 33 29.9375 33.125 29.75C33.3125 29.5 33.25 29.0625 33 28.875L26.5 24.0625L26.5625 24L25.625 23.4375L20.625 19.75V13.8125C20.6875 13.8125 20.75 13.8125 20.8125 13.8125L20.9375 12.5625C20.8125 12.5625 20.75 12.5625 20.625 12.5625V8.75C20.625 8.375 20.375 8.125 20 8.125Z" fill="#D62D30" stroke="#D62D30" stroke-width="0.5"/>
<path d="M21.9375 26.0625L22.3125 27.25C22.75 27.125 23.1875 26.9375 23.5625 26.75L23 25.625C22.625 25.8125 22.3125 26 21.9375 26.0625Z" fill="#D62D30" stroke="#D62D30" stroke-width="0.5"/>
<path d="M22.9375 14.5625C23.25 14.75 23.625 14.9375 23.875 15.1875L24.625 14.1875C24.25 13.9375 23.875 13.6875 23.5 13.4375L22.9375 14.5625Z" fill="#D62D30" stroke="#D62D30" stroke-width="0.5"/>
<path d="M25.25 25.5625L24.375 24.6875C24.125 24.9375 23.8125 25.1875 23.5 25.375L24.1875 26.4375C24.5625 26.1875 24.875 25.875 25.25 25.5625Z" fill="#D62D30" stroke="#D62D30" stroke-width="0.5"/>
<path d="M25.1875 14.625L24.375 15.5C24.625 15.75 24.9375 16.0625 25.125 16.375L26.125 15.625C25.875 15.25 25.5625 14.9375 25.1875 14.625Z" fill="#D62D30" stroke="#D62D30" stroke-width="0.5"/>
<path d="M17.5625 13.0625L18 14.25C18.375 14.125 18.75 14 19.125 13.9375L18.9375 12.6875C18.4375 12.75 18 12.875 17.5625 13.0625Z" fill="#D62D30" stroke="#D62D30" stroke-width="0.5"/>
<path d="M14.375 22.625C14.25 22.25 14.125 21.9375 14 21.5625L12.8125 21.875C12.9375 22.3125 13.0625 22.75 13.25 23.1875L14.375 22.625Z" fill="#D62D30" stroke="#D62D30" stroke-width="0.5"/>
<path d="M18.25 27.375C18.6875 27.5 19.125 27.5625 19.625 27.5625L19.6875 26.3125C19.3125 26.3125 18.9375 26.25 18.5625 26.125L18.25 27.375Z" fill="#D62D30" stroke="#D62D30" stroke-width="0.5"/>
<path d="M20.3125 27.625C20.75 27.625 21.25 27.5625 21.6875 27.5L21.4375 26.25C21.0625 26.3125 20.6875 26.375 20.3125 26.375V27.625Z" fill="#D62D30" stroke="#D62D30" stroke-width="0.5"/>
<path d="M12.6875 19.125L13.9375 19.3125C14 18.9375 14.0625 18.5625 14.1875 18.1875L13 17.8125C12.8125 18.1875 12.75 18.625 12.6875 19.125Z" fill="#D62D30" stroke="#D62D30" stroke-width="0.5"/>
<path d="M25.75 22.875L26.875 23.4375C27.0625 23 27.25 22.625 27.375 22.1875L26.1875 21.875C26 22.1875 25.875 22.5 25.75 22.875Z" fill="#D62D30" stroke="#D62D30" stroke-width="0.5"/>
<path d="M27.5 20.125H26.3125C26.3125 20.5 26.3125 20.875 26.25 21.25L27.4375 21.5C27.5 21 27.5 20.5625 27.5 20.125Z" fill="#D62D30" stroke="#D62D30" stroke-width="0.5"/>
<path d="M21.625 12.75L21.375 14C21.75 14.0625 22.125 14.1875 22.4375 14.3125L22.875 13.125C22.5 13 22.0625 12.8125 21.625 12.75Z" fill="#D62D30" stroke="#D62D30" stroke-width="0.5"/>
<path d="M16.5 25.25C16.1875 25.0625 15.875 24.8125 15.625 24.5L14.75 25.375C15.0625 25.6875 15.4375 26 15.8125 26.25L16.5 25.25Z" fill="#D62D30" stroke="#D62D30" stroke-width="0.5"/>
<path d="M15.25 24.0625C15 23.75 14.8125 23.4375 14.625 23.125L13.5 23.75C13.6875 24.125 14 24.5 14.25 24.875L15.25 24.0625Z" fill="#D62D30" stroke="#D62D30" stroke-width="0.5"/>
<path d="M25.4375 16.8125C25.625 17.125 25.8125 17.5 25.9375 17.8125L27.125 17.375C26.9375 16.9375 26.75 16.5625 26.5 16.125L25.4375 16.8125Z" fill="#D62D30" stroke="#D62D30" stroke-width="0.5"/>
<path d="M27.3125 18.0625L26.125 18.375C26.25 18.75 26.3125 19.125 26.3125 19.5L27.5625 19.375C27.5625 18.9375 27.4375 18.5 27.3125 18.0625Z" fill="#D62D30" stroke="#D62D30" stroke-width="0.5"/>
<path d="M14.25 15.375L15.25 16.1875C15.5 15.875 15.75 15.625 16.0625 15.375L15.25 14.375C14.875 14.6875 14.5625 15 14.25 15.375Z" fill="#D62D30" stroke="#D62D30" stroke-width="0.5"/>
<path d="M15.75 14L16.5 15C16.8125 14.75 17.125 14.5625 17.5 14.4375L17 13.3125C16.5 13.5 16.125 13.6875 15.75 14Z" fill="#D62D30" stroke="#D62D30" stroke-width="0.5"/>
<path d="M13.1875 17.125L14.3125 17.625C14.4375 17.25 14.625 16.9375 14.875 16.625L13.8125 15.9375C13.625 16.3125 13.375 16.6875 13.1875 17.125Z" fill="#D62D30" stroke="#D62D30" stroke-width="0.5"/>
<path d="M16.375 26.625C16.75 26.875 17.1875 27.0625 17.625 27.1875L18.0625 26C17.6875 25.875 17.375 25.6875 17 25.5L16.375 26.625Z" fill="#D62D30" stroke="#D62D30" stroke-width="0.5"/>
<path d="M12.625 20.125C12.625 20.5 12.625 20.8125 12.6875 21.1875L13.9375 21C13.875 20.6875 13.875 20.4375 13.875 20.125C13.875 20.0625 13.875 19.9375 13.875 19.875L12.625 19.8125C12.625 19.875 12.625 20 12.625 20.125Z" fill="#D62D30" stroke="#D62D30" stroke-width="0.5"/>
<path d="M15.625 35C15.625 35.375 15.875 35.625 16.25 35.625H30.75C33.3125 35.625 35.625 33.25 35.625 30.75V9.5C35.625 6.9375 33.25 5 30.75 5H9.5C6.9375 5 5 6.9375 5 9.5V23.75C5 24.125 5.25 24.375 5.625 24.375C6 24.375 6.25 24.125 6.25 23.75V9.5C6.25 7.625 7.625 6.25 9.5 6.25H30.75C32.625 6.25 34.375 7.625 34.375 9.5V30.75C34.375 32.625 32.5625 34.375 30.75 34.375H16.25C15.875 34.375 15.625 34.625 15.625 35Z" fill="#D62D30" stroke="#D62D30" stroke-width="0.5"/>
<path d="M9.56251 29.5625L5 34.125L4.1875 33.3125C3.9375 33.0625 3.5625 33.0625 3.3125 33.3125C3.0625 33.5625 3.0625 33.9375 3.3125 34.1875L4.5625 35.4375C4.6875 35.5625 4.8125 35.625 5 35.625C5.1875 35.625 5.3125 35.5625 5.4375 35.4375L10.4375 30.4375C10.6875 30.1875 10.6875 29.8125 10.4375 29.5625C10.1875 29.3125 9.81251 29.3125 9.56251 29.5625Z" fill="#D62D30" stroke="#D62D30" stroke-width="0.5"/>
<path d="M15.8125 28.9375C15.5 28.8125 15.125 28.9375 15 29.25L14.5625 30.1875C14.1875 29.125 13.5625 28.125 12.75 27.3125C9.8125 24.375 5.0625 24.375 2.125 27.3125C0.75 28.625 0 30.5 0 32.5C0 34.5 0.75 36.375 2.1875 37.8125C3.6875 39.25 5.5625 40 7.5 40C9.4375 40 11.375 39.25 12.8125 37.8125C13.0625 37.5625 13.0625 37.1875 12.8125 36.9375C12.5625 36.6875 12.1875 36.6875 11.9375 36.9375C9.5 39.375 5.5 39.375 3.0625 36.9375C1.875 35.75 1.25 34.1875 1.25 32.5C1.25 30.8125 1.875 29.25 3.0625 28.0625C5.5 25.625 9.5 25.625 11.9375 28.0625C12.6875 28.8125 13.25 29.75 13.5625 30.8125L12.1875 30.0625C11.875 29.875 11.5 30 11.3125 30.3125C11.125 30.625 11.25 31 11.5625 31.1875L14.0625 32.5C14.0625 32.5 14.125 32.5 14.125 32.5625C14.1875 32.5625 14.25 32.625 14.3125 32.625C14.3125 32.625 14.3125 32.625 14.375 32.625C14.4375 32.625 14.4375 32.625 14.5 32.625C14.5 32.625 14.5 32.625 14.5625 32.625C14.625 32.625 14.625 32.5625 14.6875 32.5625C14.75 32.5625 14.75 32.5 14.75 32.5C14.8125 32.4375 14.8125 32.4375 14.8125 32.375L14.875 32.3125L16.125 29.75C16.25 29.4375 16.125 29.0625 15.8125 28.9375Z" fill="#D62D30" stroke="#D62D30" stroke-width="0.5"/>
</g>
<defs>
<clipPath id="clip0">
<rect width="40" height="40" fill="white"/>
</clipPath>
</defs>
</svg>
