<svg width="44" height="44" viewBox="0 0 44 44" fill="none" xmlns="http://www.w3.org/2000/svg">
<g clip-path="url(#clip0)">
<path d="M38.8197 20.3895C37.3225 19.641 34.5153 19.6323 34.3966 19.6323C34.0406 19.6323 33.752 19.9209 33.752 20.2769C33.752 20.6328 34.0406 20.9214 34.3966 20.9214C35.1209 20.9215 37.2241 21.033 38.2432 21.5425C38.3358 21.5889 38.4341 21.6107 38.5309 21.6107C38.7674 21.6107 38.995 21.4801 39.1079 21.2543C39.2672 20.9359 39.1381 20.5488 38.8197 20.3895Z" fill="#D62D30" stroke="#D62D30" stroke-width="0.5"/>
<path d="M42.0331 29.5662L39.3711 28.8057C39.2562 28.7728 39.176 28.6664 39.176 28.5469V27.6584C39.3925 27.5083 39.5991 27.3404 39.7922 27.153C40.7281 26.2448 41.2435 25.0266 41.2435 23.7228V22.4967L41.5009 21.9821C41.7833 21.417 41.9326 20.7844 41.9326 20.1528V16.8313C41.9326 16.4754 41.644 16.1868 41.2881 16.1868H35.0857C32.8304 16.1868 30.9954 18.0217 30.9954 20.2771V20.3155C30.9954 20.8407 31.1196 21.3667 31.3545 21.8365L31.6846 22.4966V23.5494C31.6846 25.2178 32.5067 26.7147 33.752 27.6155L33.7522 28.5467C33.7522 28.6903 33.7522 28.7498 33.22 28.9019L31.9211 29.273L28.1639 27.9068C28.1774 27.7295 28.1175 27.5492 27.9882 27.4133L26.7876 26.1519V24.0344C26.9145 23.9298 27.0396 23.8224 27.1609 23.7088C28.6755 22.2891 29.5442 20.2847 29.5442 18.2096V16.5185C30.0016 15.5232 30.2333 14.4701 30.2333 13.3855V6.49414C30.2333 6.13819 29.9447 5.84961 29.5888 5.84961H19.9407C16.5453 5.84961 13.783 8.61198 13.783 12.0073V13.3856C13.783 14.4703 14.0148 15.5234 14.4721 16.5187V17.9737C14.4721 20.383 15.5434 22.5536 17.2288 23.9847V26.152L16.0281 27.4134C15.8988 27.5493 15.839 27.7296 15.8525 27.9068L11.8869 29.3488C11.5995 29.4533 11.3325 29.5948 11.0901 29.7663L10.4674 29.4549C12.321 28.6481 12.9082 27.5132 12.9364 27.4569C13.0272 27.2755 13.0272 27.0618 12.9364 26.8804C12.4718 25.9511 12.4155 24.2477 12.3703 22.8791C12.3552 22.4234 12.341 21.993 12.3137 21.6097C12.094 18.5182 9.74376 16.1868 6.84681 16.1868C3.94986 16.1868 1.59955 18.5181 1.3799 21.6097C1.35266 21.9931 1.33839 22.4235 1.32335 22.8792C1.27815 24.2478 1.22177 25.951 0.757195 26.8803C0.666445 27.0617 0.666445 27.2754 0.757195 27.4568C0.785383 27.5132 1.37139 28.6456 3.22876 29.4535L1.49909 30.3182C0.574406 30.7809 0 31.7103 0 32.7441V37.5058C0 37.8618 0.288578 38.1503 0.644531 38.1503C1.00048 38.1503 1.28906 37.8618 1.28906 37.5058V32.7441C1.28906 32.2017 1.59045 31.714 2.07556 31.4714L4.22941 30.3945L4.97862 31.1065C5.50249 31.6043 6.17452 31.8531 6.84681 31.8531C7.51893 31.8531 8.19131 31.6041 8.71501 31.1065L9.46412 30.3946L10.1664 30.7457C9.83572 31.2748 9.64803 31.8953 9.64803 32.5452V37.506C9.64803 37.8619 9.93661 38.1505 10.2926 38.1505C10.6485 38.1505 10.9371 37.8619 10.9371 37.506V32.5452C10.9371 31.6604 11.4958 30.8627 12.3274 30.5603L16.5084 29.04L18.2489 31.6509C18.4714 31.9847 18.828 32.1987 19.2271 32.2383C19.2717 32.2426 19.3159 32.2448 19.3601 32.2448C19.7123 32.2448 20.0496 32.1062 20.3017 31.8541L21.3635 30.7923V37.5061C21.3635 37.862 21.6521 38.1506 22.0081 38.1506C22.364 38.1506 22.6526 37.862 22.6526 37.5061V30.7923L23.7145 31.8541C23.9665 32.1063 24.3038 32.2449 24.6561 32.2449C24.7002 32.2449 24.7445 32.2427 24.7889 32.2383C25.1882 32.1988 25.5448 31.9847 25.7672 31.651L27.5078 29.0402L31.6888 30.5605C32.5203 30.8629 33.0791 31.6606 33.0791 32.5454V37.5061C33.0791 37.8621 33.3676 38.1507 33.7236 38.1507C34.0795 38.1507 34.3681 37.8621 34.3681 37.5061V32.5454C34.3681 31.6492 34.0121 30.8088 33.4148 30.1872L33.5741 30.1417C33.7347 30.0958 33.9538 30.033 34.1738 29.9252L35.8194 31.5708V37.5061C35.8194 37.8621 36.108 38.1507 36.464 38.1507C36.8199 38.1507 37.1085 37.8621 37.1085 37.5061V31.5708L38.7427 29.9366C38.8296 29.9808 38.9208 30.0181 39.0169 30.0455L41.6789 30.806C42.2865 30.9796 42.7109 31.5423 42.7109 32.1742V37.5061C42.7109 37.8621 42.9995 38.1507 43.3555 38.1507C43.7114 38.1507 44 37.8621 44 37.5061V32.1742C44 30.9696 43.1912 29.8972 42.0331 29.5662ZM4.13488 28.4278C2.92927 27.994 2.32452 27.4156 2.06637 27.0998C2.24237 26.6397 2.35649 26.1127 2.43375 25.5564C2.78919 26.4087 3.38448 27.1362 4.13488 27.6553V28.4278ZM7.82719 30.1722C7.27745 30.6945 6.41627 30.6944 5.8667 30.1721L5.26728 29.6025C5.36843 29.413 5.42403 29.1981 5.42403 28.9731V28.2861C5.87366 28.4266 6.35164 28.5024 6.84698 28.5024C7.34173 28.5024 7.81945 28.4262 8.26985 28.2865L8.26977 28.973C8.26977 29.1981 8.32528 29.4131 8.42652 29.6026L7.82719 30.1722ZM6.84716 27.2133C4.9225 27.2133 3.3568 25.6475 3.3568 23.723C3.3568 23.367 3.06823 23.0784 2.71227 23.0784C2.67618 23.0784 2.64095 23.0821 2.60648 23.0879C2.60838 23.0325 2.61018 22.9769 2.61207 22.922C2.62642 22.4789 2.64026 22.0603 2.66578 21.7012C2.74811 20.5431 3.21088 19.4759 3.96885 18.6961C4.73361 17.9093 5.75575 17.476 6.84698 17.476C7.93822 17.476 8.96027 17.9093 9.72512 18.6961C10.4831 19.4759 10.9459 20.5431 11.0282 21.7012C11.0536 22.0602 11.0675 22.4787 11.0822 22.9218C11.0834 22.9598 11.0847 22.9984 11.086 23.0368C10.3848 21.9564 9.30179 21.1601 7.90247 20.7105C6.60971 20.2952 5.49785 20.3209 5.45093 20.3221C5.28215 20.3268 5.12196 20.3975 5.00483 20.519L3.84192 21.725C3.59485 21.9813 3.60224 22.3893 3.85851 22.6364C4.11477 22.8835 4.5228 22.876 4.76988 22.6198L5.73753 21.6163C6.57087 21.657 9.25186 21.9688 10.2945 24.2648C10.0322 25.9567 8.57794 27.2133 6.84716 27.2133ZM9.55874 28.4299L9.55883 27.6612C10.3086 27.145 10.9048 26.4188 11.2605 25.5601C11.3377 26.1151 11.4518 26.6409 11.6274 27.1C11.3707 27.4128 10.7632 27.9963 9.55874 28.4299ZM15.7612 17.9736V16.3745C15.7612 16.2774 15.7393 16.1816 15.6971 16.0942C15.2824 15.2354 15.0721 14.3241 15.0721 13.3856V12.0074C15.0721 9.32277 17.2562 7.13876 19.9407 7.13876H28.9443V13.3857C28.9443 14.3242 28.734 15.2354 28.3192 16.0943C28.277 16.1817 28.2551 16.2775 28.2551 16.3745V18.2097C28.2551 19.9552 27.5535 21.5742 26.2793 22.7685C26.1203 22.9175 25.9552 23.0572 25.7845 23.1874C25.7807 23.19 25.7771 23.1928 25.7734 23.1955C24.5798 24.1017 23.1179 24.5421 21.5911 24.4432C18.322 24.2316 15.7612 21.3898 15.7612 17.9736ZM19.3903 30.9425C19.3858 30.947 19.3754 30.9575 19.3543 30.9553C19.3334 30.9532 19.3251 30.941 19.3216 30.9356L17.3171 27.9288L17.9621 27.2511L21.003 29.3296L19.3903 30.9425ZM22.0082 28.4552L18.5178 26.0694V24.8663C19.4209 25.3545 20.4322 25.6598 21.5077 25.7294C21.6776 25.7404 21.8464 25.7459 22.0148 25.7459C23.2472 25.7459 24.4333 25.4513 25.4985 24.8921V26.0694L22.0082 28.4552ZM24.6947 30.9358C24.6912 30.9411 24.683 30.9534 24.662 30.9555C24.6409 30.9581 24.6306 30.9471 24.6261 30.9427L23.0133 29.3299L26.0542 27.2512L26.6993 27.929L24.6947 30.9358ZM36.464 30.392L35.0013 28.9294C35.0268 28.8135 35.0413 28.6866 35.0412 28.5466L35.0411 28.2746C35.447 28.4078 35.8748 28.4868 36.3174 28.5001C36.3671 28.5016 36.4164 28.5023 36.4659 28.5023C36.955 28.5023 37.4325 28.4284 37.8869 28.2874V28.5469C37.8869 28.6755 37.9031 28.8015 37.9335 28.9225L36.464 30.392ZM38.8945 26.228C38.2114 26.8909 37.309 27.241 36.3562 27.2116C34.491 27.1557 32.9736 25.5128 32.9736 23.5496V22.3446C32.9736 22.2445 32.9503 22.1458 32.9056 22.0564L32.5074 21.2601C32.3616 20.9683 32.2845 20.6418 32.2845 20.3156V20.2771C32.2845 18.7325 33.5411 17.4759 35.0857 17.4759H40.6435V20.1529C40.6435 20.5855 40.5413 21.0187 40.3478 21.4057L40.0225 22.0564C39.9777 22.1459 39.9544 22.2445 39.9544 22.3446V23.7229C39.9544 24.6751 39.578 25.5647 38.8945 26.228Z" fill="#D62D30" stroke="#D62D30" stroke-width="0.5"/>
<path d="M40.5988 32.7261C40.2429 32.7261 39.9543 33.0147 39.9543 33.3706V37.5055C39.9543 37.8614 40.2429 38.15 40.5988 38.15C40.9548 38.15 41.2434 37.8614 41.2434 37.5055V33.3706C41.2434 33.0147 40.9548 32.7261 40.5988 32.7261Z" fill="#D62D30" stroke="#D62D30" stroke-width="0.5"/>
<path d="M3.40115 33.5781C3.0452 33.5781 2.75662 33.8667 2.75662 34.2227V37.5056C2.75662 37.8615 3.0452 38.1501 3.40115 38.1501C3.75711 38.1501 4.04568 37.8615 4.04568 37.5056V34.2227C4.04568 33.8668 3.75711 33.5781 3.40115 33.5781Z" fill="#D62D30" stroke="#D62D30" stroke-width="0.5"/>
<path d="M27.2879 13.6186C24.8502 11.1809 19.7499 11.647 17.67 11.9605C17.0149 12.0592 16.5395 12.6136 16.5395 13.2787V14.7635C16.5395 15.1194 16.8281 15.408 17.1841 15.408C17.54 15.408 17.8286 15.1194 17.8286 14.7635V13.2786C17.8286 13.2567 17.843 13.2379 17.8623 13.235C18.693 13.1098 20.3416 12.9166 22.0496 13.0305C24.0595 13.1643 25.5153 13.6688 26.3765 14.5301C26.6282 14.7818 27.0363 14.7818 27.2879 14.5301C27.5396 14.2784 27.5396 13.8702 27.2879 13.6186Z" fill="#D62D30" stroke="#D62D30" stroke-width="0.5"/>
<path d="M14.4275 34.1045C14.0716 34.1045 13.783 34.3931 13.783 34.749V37.5056C13.783 37.8616 14.0716 38.1502 14.4275 38.1502C14.7835 38.1502 15.0721 37.8616 15.0721 37.5056V34.749C15.0721 34.3932 14.7835 34.1045 14.4275 34.1045Z" fill="#D62D30" stroke="#D62D30" stroke-width="0.5"/>
<path d="M29.5888 34.1045C29.2328 34.1045 28.9443 34.3931 28.9443 34.749V37.5056C28.9443 37.8616 29.2328 38.1502 29.5888 38.1502C29.9448 38.1502 30.2333 37.8616 30.2333 37.5056V34.749C30.2333 34.3932 29.9448 34.1045 29.5888 34.1045Z" fill="#D62D30" stroke="#D62D30" stroke-width="0.5"/>
</g>
<defs>
<clipPath id="clip0">
<rect width="44" height="44" fill="white"/>
</clipPath>
</defs>
</svg>
