<svg width="40" height="40" viewBox="0 0 40 40" fill="none" xmlns="http://www.w3.org/2000/svg">
<g clip-path="url(#clip0)">
<path d="M35.3333 10.6665H19.3333C18.9653 10.6665 18.6667 10.9652 18.6667 11.3332C18.6667 11.7012 18.9653 11.9998 19.3333 11.9998H35.3333C35.7013 11.9998 36 11.7012 36 11.3332C36 10.9652 35.7013 10.6665 35.3333 10.6665Z" fill="#D62D30" stroke="#D62D30" stroke-width="0.5"/>
<path d="M28 34.6665H19.3333C18.9653 34.6665 18.6667 34.9652 18.6667 35.3332C18.6667 35.7012 18.9653 35.9998 19.3333 35.9998H28C28.368 35.9998 28.6667 35.7012 28.6667 35.3332C28.6667 34.9652 28.368 34.6665 28 34.6665Z" fill="#D62D30" stroke="#D62D30" stroke-width="0.5"/>
<path d="M35.3333 18.6665H30C29.632 18.6665 29.3333 18.9652 29.3333 19.3332C29.3333 19.7012 29.632 19.9998 30 19.9998H35.3333C35.7013 19.9998 36 19.7012 36 19.3332C36 18.9652 35.7013 18.6665 35.3333 18.6665Z" fill="#D62D30" stroke="#D62D30" stroke-width="0.5"/>
<path d="M19.3333 19.9998H27.3333C27.7013 19.9998 28 19.7012 28 19.3332C28 18.9652 27.7013 18.6665 27.3333 18.6665H19.3333C18.9653 18.6665 18.6667 18.9652 18.6667 19.3332C18.6667 19.7012 18.9653 19.9998 19.3333 19.9998Z" fill="#D62D30" stroke="#D62D30" stroke-width="0.5"/>
<path d="M19.3333 23.9998H24.6667C25.0347 23.9998 25.3333 23.7012 25.3333 23.3332C25.3333 22.9652 25.0347 22.6665 24.6667 22.6665H19.3333C18.9653 22.6665 18.6667 22.9652 18.6667 23.3332C18.6667 23.7012 18.9653 23.9998 19.3333 23.9998Z" fill="#D62D30" stroke="#D62D30" stroke-width="0.5"/>
<path d="M35.3333 22.6665H27.3333C26.9653 22.6665 26.6667 22.9652 26.6667 23.3332C26.6667 23.7012 26.9653 23.9998 27.3333 23.9998H35.3333C35.7013 23.9998 36 23.7012 36 23.3332C36 22.9652 35.7013 22.6665 35.3333 22.6665Z" fill="#D62D30" stroke="#D62D30" stroke-width="0.5"/>
<path d="M29.3333 30.6665H19.3333C18.9653 30.6665 18.6667 30.9652 18.6667 31.3332C18.6667 31.7012 18.9653 31.9998 19.3333 31.9998H29.3333C29.7013 31.9998 30 31.7012 30 31.3332C30 30.9652 29.7013 30.6665 29.3333 30.6665Z" fill="#D62D30" stroke="#D62D30" stroke-width="0.5"/>
<path d="M19.3333 15.9998H24.6667C25.0347 15.9998 25.3333 15.7012 25.3333 15.3332C25.3333 14.9652 25.0347 14.6665 24.6667 14.6665H19.3333C18.9653 14.6665 18.6667 14.9652 18.6667 15.3332C18.6667 15.7012 18.9653 15.9998 19.3333 15.9998Z" fill="#D62D30" stroke="#D62D30" stroke-width="0.5"/>
<path d="M35.3333 14.6665H27.3333C26.9653 14.6665 26.6667 14.9652 26.6667 15.3332C26.6667 15.7012 26.9653 15.9998 27.3333 15.9998H35.3333C35.7013 15.9998 36 15.7012 36 15.3332C36 14.9652 35.7013 14.6665 35.3333 14.6665Z" fill="#D62D30" stroke="#D62D30" stroke-width="0.5"/>
<path d="M35.3333 26.6665H30C29.632 26.6665 29.3333 26.9652 29.3333 27.3332C29.3333 27.7012 29.632 27.9998 30 27.9998H35.3333C35.7013 27.9998 36 27.7012 36 27.3332C36 26.9652 35.7013 26.6665 35.3333 26.6665Z" fill="#D62D30" stroke="#D62D30" stroke-width="0.5"/>
<path d="M19.3333 27.9998H27.3333C27.7013 27.9998 28 27.7012 28 27.3332C28 26.9652 27.7013 26.6665 27.3333 26.6665H19.3333C18.9653 26.6665 18.6667 26.9652 18.6667 27.3332C18.6667 27.7012 18.9653 27.9998 19.3333 27.9998Z" fill="#D62D30" stroke="#D62D30" stroke-width="0.5"/>
<path d="M38 5.33333H16.6667C15.564 5.33333 14.6667 6.23067 14.6667 7.33333V38C14.6667 38.2347 14.7147 38.4573 14.7893 38.6667H2C1.63267 38.6667 1.33333 38.3673 1.33333 38V2C1.33333 1.63267 1.63267 1.33333 2 1.33333H3.33333V10.6667C3.33333 11.402 3.93133 12 4.66667 12H5.33333C6.06867 12 6.66667 11.402 6.66667 10.6667V3.33333C6.66667 2.96533 6.368 2.66667 6 2.66667C5.632 2.66667 5.33333 2.96533 5.33333 3.33333V10.6667H4.66667V1.33333H7.33333V10C7.33333 10.368 7.632 10.6667 8 10.6667C8.368 10.6667 8.66667 10.368 8.66667 10V1.33333H25.3333C25.7007 1.33333 26 1.63267 26 2V3.33333C26 3.70133 26.2987 4 26.6667 4C27.0347 4 27.3333 3.70133 27.3333 3.33333V2C27.3333 0.897333 26.436 0 25.3333 0H7.33333H4.66667H2C0.897333 0 0 0.897333 0 2V38C0 39.1027 0.897333 40 2 40H16.6667H25.3333H32C32.0873 40 32.1733 39.9827 32.254 39.9493C32.3347 39.916 32.4087 39.8673 32.4713 39.8047L39.8047 32.4713C39.862 32.414 39.9027 32.3467 39.9353 32.276C39.9447 32.2553 39.9507 32.2347 39.958 32.2133C39.9767 32.1573 39.988 32.1007 39.9913 32.042C39.9927 32.0273 40 32.0147 40 32V7.33333C40 6.23067 39.1027 5.33333 38 5.33333ZM32.6667 37.724V33.3333C32.6667 32.966 32.966 32.6667 33.3333 32.6667H37.724L32.6667 37.724ZM38.6667 31.3333H33.3333C32.2307 31.3333 31.3333 32.2307 31.3333 33.3333V38.6667H25.3333H16.6667C16.2993 38.6667 16 38.3673 16 38V7.33333C16 6.966 16.2993 6.66667 16.6667 6.66667H38C38.3673 6.66667 38.6667 6.966 38.6667 7.33333V31.3333Z" fill="#D62D30" stroke="#D62D30" stroke-width="0.5"/>
<path d="M4 15.9998H9.33334C9.70134 15.9998 10 15.7012 10 15.3332C10 14.9652 9.70134 14.6665 9.33334 14.6665H4C3.632 14.6665 3.33334 14.9652 3.33334 15.3332C3.33334 15.7012 3.632 15.9998 4 15.9998Z" fill="#D62D30" stroke="#D62D30" stroke-width="0.5"/>
<path d="M12 18.6665H4C3.632 18.6665 3.33334 18.9652 3.33334 19.3332C3.33334 19.7012 3.632 19.9998 4 19.9998H12C12.368 19.9998 12.6667 19.7012 12.6667 19.3332C12.6667 18.9652 12.368 18.6665 12 18.6665Z" fill="#D62D30" stroke="#D62D30" stroke-width="0.5"/>
<path d="M4 23.9998H9.33334C9.70134 23.9998 10 23.7012 10 23.3332C10 22.9652 9.70134 22.6665 9.33334 22.6665H4C3.632 22.6665 3.33334 22.9652 3.33334 23.3332C3.33334 23.7012 3.632 23.9998 4 23.9998Z" fill="#D62D30" stroke="#D62D30" stroke-width="0.5"/>
<path d="M12 26.6665H4C3.632 26.6665 3.33334 26.9652 3.33334 27.3332C3.33334 27.7012 3.632 27.9998 4 27.9998H12C12.368 27.9998 12.6667 27.7012 12.6667 27.3332C12.6667 26.9652 12.368 26.6665 12 26.6665Z" fill="#D62D30" stroke="#D62D30" stroke-width="0.5"/>
<path d="M4 31.9998H9.33334C9.70134 31.9998 10 31.7012 10 31.3332C10 30.9652 9.70134 30.6665 9.33334 30.6665H4C3.632 30.6665 3.33334 30.9652 3.33334 31.3332C3.33334 31.7012 3.632 31.9998 4 31.9998Z" fill="#D62D30" stroke="#D62D30" stroke-width="0.5"/>
<path d="M4 35.9998H12C12.368 35.9998 12.6667 35.7012 12.6667 35.3332C12.6667 34.9652 12.368 34.6665 12 34.6665H4C3.632 34.6665 3.33334 34.9652 3.33334 35.3332C3.33334 35.7012 3.632 35.9998 4 35.9998Z" fill="#D62D30" stroke="#D62D30" stroke-width="0.5"/>
</g>
<defs>
<clipPath id="clip0">
<rect width="40" height="40" fill="white"/>
</clipPath>
</defs>
</svg>
