<svg width="74" height="74" viewBox="0 0 74 74" fill="none" xmlns="http://www.w3.org/2000/svg">
<circle cx="37" cy="37" r="36" fill="white" stroke="#EEEEEE" stroke-width="2"/>
<path d="M42.6039 39.689V40.263C42.6039 40.4962 42.415 40.6851 42.1818 40.6851H31.8182C31.585 40.6851 31.3961 40.4962 31.3961 40.263V39.689H24.9925L27.3663 42.1565H46.6387L49.1959 39.689H42.6039Z" fill="#EBE7F2"/>
<path d="M41.4491 32.9536C42.1413 33.5555 42.5845 34.4363 42.6032 35.4211H53.462V32.9536H41.4491Z" fill="#EBE7F2"/>
<path d="M32.5509 32.9536H20.5223V35.4211H31.3968C31.4156 34.4363 31.8588 33.5555 32.5509 32.9536Z" fill="#EBE7F2"/>
<path d="M36.2976 26.2188H20.5223V28.6863H33.891C34.1357 27.4623 35.0849 26.493 36.2976 26.2188Z" fill="#EBE7F2"/>
<path d="M37.6963 26.2188C38.9012 26.4944 39.8596 27.4734 40.1076 28.6863H53.462V26.2188H37.6963Z" fill="#EBE7F2"/>
<path d="M54.4115 53.6017H19.5885C18.4609 53.6017 17.5469 52.6876 17.5469 51.5601V55.3811C17.5469 56.5087 18.4609 57.4227 19.5885 57.4227H54.4115C55.5391 57.4227 56.4531 56.5087 56.4531 55.3811V51.5601C56.4531 52.6876 55.5391 53.6017 54.4115 53.6017Z" fill="url(#paint0_linear)"/>
<mask id="path-8-inside-1" fill="white">
<path d="M57.0342 32.4742C57.0325 32.4543 57.0318 32.4346 57.0281 32.4149C57.0278 32.4133 57.0276 32.4119 57.0274 32.4103C57.0248 32.3974 57.0196 32.3856 57.0161 32.373C57.01 32.3503 57.0046 32.3273 56.9957 32.3053C56.995 32.3038 56.9946 32.3024 56.9939 32.3008C56.9892 32.2898 56.9826 32.2799 56.9772 32.2692C56.9662 32.2464 56.9557 32.2237 56.9414 32.2024C56.9409 32.2017 56.9402 32.201 56.9397 32.2003C56.9343 32.1923 56.9275 32.186 56.9219 32.1782C56.906 32.1569 56.8907 32.1349 56.8717 32.1154C56.8696 32.1133 56.8671 32.1119 56.865 32.1098L54.048 29.3214V23.9067C54.048 22.833 53.1745 21.9595 52.1008 21.9595H21.899C20.8253 21.9595 19.9518 22.833 19.9518 23.9067V29.3214L17.1351 32.1096C17.133 32.1117 17.1304 32.1131 17.1283 32.1154C17.1091 32.1351 17.0938 32.1569 17.0781 32.1782C17.0725 32.1857 17.0657 32.1923 17.0603 32.2003C17.0598 32.201 17.0591 32.2017 17.0587 32.2024C17.0444 32.2239 17.0338 32.2467 17.0226 32.2694C17.0174 32.2799 17.0106 32.2898 17.0062 32.3006C17.0057 32.302 17.005 32.3034 17.0043 32.3048C16.9954 32.3271 16.9898 32.35 16.9837 32.3728C16.9804 32.3852 16.9752 32.3969 16.9727 32.4098C16.9724 32.4114 16.9722 32.4128 16.972 32.4145C16.9682 32.4342 16.9677 32.4538 16.9659 32.4738C16.9645 32.4909 16.9612 32.5075 16.9609 32.5246C16.9609 32.5251 16.9607 32.5256 16.9607 32.526V55.3809C16.9607 56.1585 17.3024 56.8563 17.841 57.3377C17.8457 57.3421 17.849 57.3475 17.8537 57.3517C17.8612 57.3583 17.8694 57.3639 17.8771 57.3705C17.9156 57.4035 17.9554 57.4349 17.9957 57.4656C18.0201 57.4844 18.0447 57.5031 18.0698 57.521C18.1106 57.55 18.1525 57.5777 18.1952 57.6044C18.2214 57.6208 18.2477 57.6372 18.2746 57.6527C18.3177 57.6778 18.3618 57.7014 18.4066 57.7242C18.4347 57.7385 18.4628 57.7518 18.4914 57.7652C18.5362 57.7858 18.5812 57.8055 18.6274 57.8238C18.6581 57.836 18.689 57.8467 18.7202 57.8578C18.7654 57.8737 18.8104 57.8892 18.8566 57.9025C18.892 57.9128 18.9276 57.9213 18.9634 57.9302C19.0063 57.9407 19.0492 57.9517 19.0928 57.9599C19.1381 57.9686 19.184 57.9745 19.2299 57.981C19.2656 57.986 19.3005 57.9923 19.3366 57.9956C19.42 58.0035 19.5039 58.0082 19.5883 58.0082H54.4113C54.4957 58.0082 54.5798 58.0035 54.663 57.9956C54.6991 57.9921 54.734 57.9857 54.7696 57.981C54.8156 57.9747 54.8615 57.9689 54.9067 57.9599C54.9506 57.9515 54.9932 57.9407 55.0361 57.9302C55.072 57.9213 55.1076 57.9128 55.143 57.9025C55.1892 57.8892 55.2344 57.8737 55.2794 57.8578C55.3103 57.8467 55.3415 57.836 55.372 57.8238C55.4182 57.8055 55.4634 57.7858 55.5082 57.7652C55.5367 57.7521 55.5649 57.7385 55.593 57.7244C55.6378 57.7017 55.6816 57.678 55.725 57.6529C55.7517 57.6374 55.7782 57.621 55.8044 57.6046C55.8471 57.5779 55.889 57.5505 55.9298 57.5212C55.9549 57.5034 55.9793 57.4846 56.0036 57.4659C56.0439 57.4349 56.0838 57.4038 56.1222 57.3707C56.13 57.3642 56.1379 57.3585 56.1457 57.352C56.1506 57.3478 56.1536 57.3424 56.1583 57.3379C56.6971 56.8565 57.0386 56.1588 57.0386 55.3811V32.5263C57.0386 32.5258 57.0384 32.5253 57.0384 32.5249C57.0389 32.508 57.0356 32.4911 57.0342 32.4742ZM55.8672 55.3814C55.8672 55.6499 55.7929 55.9007 55.6654 56.1171L42.8425 46.6968L53.872 35.8738L53.8762 35.8696C53.8764 35.8696 53.8764 35.8694 53.8764 35.8694L55.867 33.9196V55.3814H55.8672ZM55.6176 32.5237L54.0482 34.061V30.9703L55.6176 32.5237ZM21.899 23.1313H52.1008C52.5283 23.1313 52.8761 23.4789 52.8761 23.9067V35.2092L41.8858 45.9939L38.5556 43.5475C37.6249 42.8636 36.3747 42.8636 35.4442 43.5475L32.1135 45.9944L21.1239 35.2092V23.9067C21.1239 23.4792 21.4715 23.1313 21.899 23.1313ZM18.3346 56.1168C18.2073 55.9007 18.1328 55.6497 18.1328 55.3811V33.9192L20.1234 35.8689C20.1236 35.8689 20.1236 35.8692 20.1238 35.8694L20.1276 35.8731L31.1568 46.6971L18.3346 56.1168ZM19.952 34.061L18.3827 32.5237L19.952 30.9703V34.061ZM19.5885 56.8368C19.5187 56.8368 19.4491 56.8303 19.3806 56.8202C19.3741 56.8192 19.3675 56.8183 19.3609 56.8171L32.3753 47.2563C32.387 47.2488 32.3981 47.2396 32.4095 47.2312L36.1385 44.4918C36.6538 44.1128 37.3464 44.1128 37.862 44.4918L41.5942 47.2335C41.6038 47.2406 41.613 47.2483 41.6228 47.2546L54.6393 56.8171C54.6328 56.8181 54.6262 56.8192 54.6196 56.8202C54.5512 56.8303 54.4816 56.8368 54.4117 56.8368H19.5885Z"/>
</mask>
<path d="M57.0342 32.4742C57.0325 32.4543 57.0318 32.4346 57.0281 32.4149C57.0278 32.4133 57.0276 32.4119 57.0274 32.4103C57.0248 32.3974 57.0196 32.3856 57.0161 32.373C57.01 32.3503 57.0046 32.3273 56.9957 32.3053C56.995 32.3038 56.9946 32.3024 56.9939 32.3008C56.9892 32.2898 56.9826 32.2799 56.9772 32.2692C56.9662 32.2464 56.9557 32.2237 56.9414 32.2024C56.9409 32.2017 56.9402 32.201 56.9397 32.2003C56.9343 32.1923 56.9275 32.186 56.9219 32.1782C56.906 32.1569 56.8907 32.1349 56.8717 32.1154C56.8696 32.1133 56.8671 32.1119 56.865 32.1098L54.048 29.3214V23.9067C54.048 22.833 53.1745 21.9595 52.1008 21.9595H21.899C20.8253 21.9595 19.9518 22.833 19.9518 23.9067V29.3214L17.1351 32.1096C17.133 32.1117 17.1304 32.1131 17.1283 32.1154C17.1091 32.1351 17.0938 32.1569 17.0781 32.1782C17.0725 32.1857 17.0657 32.1923 17.0603 32.2003C17.0598 32.201 17.0591 32.2017 17.0587 32.2024C17.0444 32.2239 17.0338 32.2467 17.0226 32.2694C17.0174 32.2799 17.0106 32.2898 17.0062 32.3006C17.0057 32.302 17.005 32.3034 17.0043 32.3048C16.9954 32.3271 16.9898 32.35 16.9837 32.3728C16.9804 32.3852 16.9752 32.3969 16.9727 32.4098C16.9724 32.4114 16.9722 32.4128 16.972 32.4145C16.9682 32.4342 16.9677 32.4538 16.9659 32.4738C16.9645 32.4909 16.9612 32.5075 16.9609 32.5246C16.9609 32.5251 16.9607 32.5256 16.9607 32.526V55.3809C16.9607 56.1585 17.3024 56.8563 17.841 57.3377C17.8457 57.3421 17.849 57.3475 17.8537 57.3517C17.8612 57.3583 17.8694 57.3639 17.8771 57.3705C17.9156 57.4035 17.9554 57.4349 17.9957 57.4656C18.0201 57.4844 18.0447 57.5031 18.0698 57.521C18.1106 57.55 18.1525 57.5777 18.1952 57.6044C18.2214 57.6208 18.2477 57.6372 18.2746 57.6527C18.3177 57.6778 18.3618 57.7014 18.4066 57.7242C18.4347 57.7385 18.4628 57.7518 18.4914 57.7652C18.5362 57.7858 18.5812 57.8055 18.6274 57.8238C18.6581 57.836 18.689 57.8467 18.7202 57.8578C18.7654 57.8737 18.8104 57.8892 18.8566 57.9025C18.892 57.9128 18.9276 57.9213 18.9634 57.9302C19.0063 57.9407 19.0492 57.9517 19.0928 57.9599C19.1381 57.9686 19.184 57.9745 19.2299 57.981C19.2656 57.986 19.3005 57.9923 19.3366 57.9956C19.42 58.0035 19.5039 58.0082 19.5883 58.0082H54.4113C54.4957 58.0082 54.5798 58.0035 54.663 57.9956C54.6991 57.9921 54.734 57.9857 54.7696 57.981C54.8156 57.9747 54.8615 57.9689 54.9067 57.9599C54.9506 57.9515 54.9932 57.9407 55.0361 57.9302C55.072 57.9213 55.1076 57.9128 55.143 57.9025C55.1892 57.8892 55.2344 57.8737 55.2794 57.8578C55.3103 57.8467 55.3415 57.836 55.372 57.8238C55.4182 57.8055 55.4634 57.7858 55.5082 57.7652C55.5367 57.7521 55.5649 57.7385 55.593 57.7244C55.6378 57.7017 55.6816 57.678 55.725 57.6529C55.7517 57.6374 55.7782 57.621 55.8044 57.6046C55.8471 57.5779 55.889 57.5505 55.9298 57.5212C55.9549 57.5034 55.9793 57.4846 56.0036 57.4659C56.0439 57.4349 56.0838 57.4038 56.1222 57.3707C56.13 57.3642 56.1379 57.3585 56.1457 57.352C56.1506 57.3478 56.1536 57.3424 56.1583 57.3379C56.6971 56.8565 57.0386 56.1588 57.0386 55.3811V32.5263C57.0386 32.5258 57.0384 32.5253 57.0384 32.5249C57.0389 32.508 57.0356 32.4911 57.0342 32.4742ZM55.8672 55.3814C55.8672 55.6499 55.7929 55.9007 55.6654 56.1171L42.8425 46.6968L53.872 35.8738L53.8762 35.8696C53.8764 35.8696 53.8764 35.8694 53.8764 35.8694L55.867 33.9196V55.3814H55.8672ZM55.6176 32.5237L54.0482 34.061V30.9703L55.6176 32.5237ZM21.899 23.1313H52.1008C52.5283 23.1313 52.8761 23.4789 52.8761 23.9067V35.2092L41.8858 45.9939L38.5556 43.5475C37.6249 42.8636 36.3747 42.8636 35.4442 43.5475L32.1135 45.9944L21.1239 35.2092V23.9067C21.1239 23.4792 21.4715 23.1313 21.899 23.1313ZM18.3346 56.1168C18.2073 55.9007 18.1328 55.6497 18.1328 55.3811V33.9192L20.1234 35.8689C20.1236 35.8689 20.1236 35.8692 20.1238 35.8694L20.1276 35.8731L31.1568 46.6971L18.3346 56.1168ZM19.952 34.061L18.3827 32.5237L19.952 30.9703V34.061ZM19.5885 56.8368C19.5187 56.8368 19.4491 56.8303 19.3806 56.8202C19.3741 56.8192 19.3675 56.8183 19.3609 56.8171L32.3753 47.2563C32.387 47.2488 32.3981 47.2396 32.4095 47.2312L36.1385 44.4918C36.6538 44.1128 37.3464 44.1128 37.862 44.4918L41.5942 47.2335C41.6038 47.2406 41.613 47.2483 41.6228 47.2546L54.6393 56.8171C54.6328 56.8181 54.6262 56.8192 54.6196 56.8202C54.5512 56.8303 54.4816 56.8368 54.4117 56.8368H19.5885Z" fill="white" stroke="#999999" stroke-width="4" mask="url(#path-8-inside-1)"/>
<path d="M30.1858 20.9926L35.9814 15.2893C36.543 14.739 37.457 14.7387 38.0177 15.2881L43.8126 20.9942C43.9267 21.1065 44.0751 21.1627 44.2237 21.1627C44.3751 21.1627 44.5265 21.1044 44.6411 20.9879C44.8682 20.7575 44.8654 20.3865 44.6348 20.1594L38.8387 14.4521C37.8248 13.4588 36.1752 13.4595 35.1604 14.453L29.3636 20.1573C29.1332 20.3844 29.1302 20.7554 29.357 20.986C29.5837 21.2166 29.9547 21.2197 30.1858 20.9926Z" fill="url(#paint1_linear)"/>
<path d="M39.2491 32.1312H38.4501C39.5048 31.5879 40.2152 30.4706 40.1688 29.1923C40.1095 27.5655 38.7763 26.2184 37.15 26.1436C35.3308 26.0599 33.8296 27.51 33.8296 29.3107C33.8296 30.5393 34.5283 31.6048 35.5502 32.1312H34.7512C32.8982 32.1312 31.3963 33.6333 31.3963 35.4862V40.2623C31.3963 40.4955 31.5852 40.6844 31.8184 40.6844H42.182C42.4152 40.6844 42.6041 40.4955 42.6041 40.2623V35.4862C42.6039 33.6333 41.1018 32.1312 39.2491 32.1312ZM39.9166 35.1115L36.7823 38.7187C36.6714 38.8462 36.5113 38.9196 36.3423 38.9203H36.34C36.172 38.9203 36.0121 38.8481 35.9005 38.722L34.1266 36.7116C33.9126 36.469 33.9358 36.0987 34.1784 35.8844C34.4209 35.6707 34.791 35.6939 35.0055 35.9362L36.3367 37.4451L39.0323 34.3432C39.2444 34.0987 39.6142 34.0727 39.8587 34.2853C40.1029 34.4972 40.1291 34.8673 39.9166 35.1115Z" fill="url(#paint2_linear)"/>
<defs>
<linearGradient id="paint0_linear" x1="9.13176" y1="48.3738" x2="47.3384" y2="75.5175" gradientUnits="userSpaceOnUse">
<stop stop-color="#8AC44B"/>
<stop offset="1" stop-color="#86E124"/>
</linearGradient>
<linearGradient id="paint1_linear" x1="25.8102" y1="9.65578" x2="47.7868" y2="14.5853" gradientUnits="userSpaceOnUse">
<stop stop-color="#8AC44B"/>
<stop offset="1" stop-color="#86E124"/>
</linearGradient>
<linearGradient id="paint2_linear" x1="28.9722" y1="18.2356" x2="45.4217" y2="19.5926" gradientUnits="userSpaceOnUse">
<stop stop-color="#8AC44B"/>
<stop offset="1" stop-color="#86E124"/>
</linearGradient>
</defs>
</svg>
