<svg width="74" height="74" viewBox="0 0 74 74" fill="none" xmlns="http://www.w3.org/2000/svg">
<circle cx="37" cy="37" r="36" fill="white" stroke="#EEEEEE" stroke-width="2"/>
<path d="M30.6381 24.2054H52.0816C52.0823 22.3103 50.5457 20.7737 48.6506 20.7744H40.0732V23.0045H34.9268V20.7744H26.3494C24.4543 20.7737 22.9178 22.3103 22.9184 24.2054V53.7117C22.9178 55.6067 24.4543 57.1433 26.3494 57.1426H27.2071V27.6363C27.2065 25.7413 28.743 24.2047 30.6381 24.2054Z" fill="#D4E1F4"/>
<path d="M48.6506 19.9163H40.931V17.8577C40.9296 17.3846 40.5463 17.0013 40.0732 17H34.9268C34.4537 17.0013 34.0704 17.3846 34.069 17.8577V19.9163H26.3494C23.9812 19.9173 22.0617 21.8369 22.0607 24.205V53.7113C22.0617 56.0795 23.9812 57.999 26.3494 58H48.6506C51.0188 57.999 52.9383 56.0795 52.9393 53.7113V24.205C52.9383 21.8369 51.0188 19.9173 48.6506 19.9163ZM35.7845 18.7155H39.2155V22.1464H35.7845V18.7155ZM51.2239 53.7113C51.2198 55.1306 50.0699 56.2805 48.6506 56.2845H26.3494C24.9301 56.2805 23.7802 55.1306 23.7762 53.7113V24.205C23.7802 22.7857 24.9301 21.6358 26.3494 21.6318H34.069V23.0042C34.0704 23.4773 34.4537 23.8606 34.9268 23.8619H40.0732C40.5463 23.8606 40.9296 23.4773 40.931 23.0042V21.6318H48.6506C50.0699 21.6358 51.2198 22.7857 51.2239 24.205V53.7113Z" fill="#999999"/>
<path d="M37.5 38.8605C39.9469 38.8629 41.9321 36.8814 41.9344 34.4345C41.9368 31.9879 39.9553 30.0023 37.5087 30C35.0618 29.9977 33.0763 31.9792 33.0739 34.4261C33.0732 36.872 35.0537 38.8565 37.5 38.8605ZM37.5 31.7155C38.5986 31.7138 39.5904 32.3745 40.0115 33.3894C40.4327 34.4043 40.2008 35.573 39.4239 36.35C38.6469 37.127 37.4782 37.3588 36.4633 36.9376C35.4484 36.5161 34.7877 35.5247 34.7894 34.4261C34.7894 32.9291 36.003 31.7155 37.5 31.7155Z" fill="#8AC44B"/>
<path d="M37.5 40.4987C35.686 40.4873 33.9454 41.215 32.6796 42.5144C31.393 43.8268 30.6897 45.6109 30.6897 47.5496C30.691 48.0227 31.074 48.406 31.5474 48.4073H43.4526C43.926 48.406 44.309 48.0227 44.3104 47.5496C44.3104 45.6109 43.6071 43.8268 42.3205 42.5144C41.0546 41.215 39.314 40.4873 37.5 40.4987ZM32.4652 46.6918C32.6119 45.5701 33.1175 44.526 33.9062 43.7152C34.8554 42.7549 36.1498 42.2142 37.5 42.2142C38.8503 42.2142 40.1446 42.7549 41.0938 43.7152C41.8809 44.5274 42.3861 45.5707 42.5349 46.6918H32.4652Z" fill="#8AC44B"/>
</svg>
