<svg width="74" height="74" viewBox="0 0 74 74" fill="none" xmlns="http://www.w3.org/2000/svg">
<circle cx="37" cy="37" r="36" fill="white" stroke="#EEEEEE" stroke-width="2"/>
<path d="M38.636 41.8319C38.2241 41.8322 37.8676 41.5448 37.7805 41.1421L36.5797 35.5978L31.1708 34.8421C30.8051 34.7912 30.5108 34.516 30.4353 34.1548C30.3597 33.7935 30.519 33.4237 30.8335 33.2302L35.5468 30.3314L34.5618 24.7246C34.4968 24.3558 34.6739 23.9866 35.002 23.8065C35.3301 23.626 35.7365 23.6746 36.013 23.9268L40.1033 27.6586L44.8936 24.9799C45.2194 24.7977 45.6244 24.8418 45.903 25.09C46.1815 25.3381 46.2721 25.7356 46.1285 26.0801L43.951 31.3158L47.922 35.2478C48.1848 35.5083 48.2556 35.9061 48.0983 36.2411C47.9411 36.5764 47.5901 36.7764 47.222 36.7405L41.7976 36.2151L39.4297 41.325C39.2864 41.634 38.9768 41.8319 38.636 41.8319ZM33.8235 33.4459L37.4267 33.949C37.7901 33.9999 38.083 34.272 38.1609 34.6305L38.9388 38.2222L40.4704 34.916C40.627 34.5789 40.979 34.3773 41.3488 34.4128L44.9439 34.7611L42.3011 32.145C42.0482 31.8945 41.9723 31.5157 42.1087 31.1873L43.5422 27.7406L40.4062 29.4944C40.0774 29.6782 39.6675 29.6311 39.3893 29.3771L36.7295 26.9493L37.3734 30.6144C37.4353 30.9675 37.2753 31.323 36.9697 31.511L33.8235 33.4459Z" fill="#8AC44B"/>
<path d="M45.7194 43.9424C45.4231 43.9431 45.1469 43.7934 44.9852 43.5449L42.9649 40.4435C42.701 40.0384 42.8155 39.4963 43.2202 39.2328C43.6252 38.969 44.1673 39.0835 44.4312 39.4881L46.4515 42.5899C46.6269 42.8586 46.6409 43.2021 46.4881 43.4841C46.3353 43.7664 46.0404 43.9424 45.7194 43.9424Z" fill="#8AC44B"/>
<path d="M39.6173 24.3867C39.134 24.3867 38.7423 23.995 38.7423 23.5117V19.875C38.7423 19.3917 39.134 19 39.6173 19C40.1006 19 40.4923 19.3917 40.4923 19.875V23.5117C40.4923 23.995 40.1006 24.3867 39.6173 24.3867Z" fill="#8AC44B"/>
<path d="M48.3851 31.0497C47.9448 31.0501 47.5733 30.723 47.5169 30.2865C47.4608 29.85 47.7374 29.4398 48.1632 29.3284L52.9026 28.0836C53.3702 27.9609 53.8484 28.2401 53.9714 28.7077C54.0941 29.175 53.8149 29.6535 53.3473 29.7762L48.6079 31.021C48.5351 31.0401 48.4603 31.0497 48.3851 31.0497Z" fill="#8AC44B"/>
<path d="M30.9363 29.3636C30.8861 29.3636 30.8362 29.3595 30.7866 29.351L27.2774 28.7463C26.8009 28.6643 26.4813 28.2118 26.5634 27.7356C26.6454 27.2592 27.0983 26.9396 27.5744 27.0216L31.0837 27.6263C31.5318 27.7032 31.8462 28.1099 31.8076 28.5628C31.7693 29.0157 31.3906 29.3636 30.9363 29.3636Z" fill="#8AC44B"/>
<path d="M19.8751 53.5969C19.523 53.5969 19.2052 53.3857 19.0684 53.0613C18.9321 52.737 19.0032 52.362 19.2492 52.1105L36.5493 34.4108C36.8819 34.0601 37.4356 34.0451 37.7863 34.3777C38.1373 34.7099 38.1524 35.2636 37.8198 35.6146C37.8136 35.6211 37.8072 35.6276 37.8007 35.6341L20.5006 53.3334C20.3362 53.5023 20.1106 53.5973 19.8751 53.5969Z" fill="#999999"/>
</svg>
