<svg width="74" height="74" viewBox="0 0 74 74" fill="none" xmlns="http://www.w3.org/2000/svg">
<circle cx="37" cy="37" r="36" fill="white" stroke="#EEEEEE" stroke-width="2"/>
<path d="M24.1089 50.4116H46.7656V57.0718H24.1089V50.4116Z" fill="url(#paint0_linear)"/>
<path d="M22.9279 36.4858H47.9467V38.2067H22.9279V36.4858Z" fill="#EBE7F2"/>
<path d="M48.4349 38.2067V34.7651C48.4349 34.4954 48.2164 34.2769 47.9467 34.2769H22.9279C22.6582 34.2769 22.4396 34.4954 22.4396 34.7651V38.2067C22.4396 38.4764 22.6582 38.695 22.9279 38.695H47.9467C48.2164 38.695 48.4349 38.4764 48.4349 38.2067ZM47.4584 37.7184H23.4162V35.2534H47.4584V37.7184Z" fill="#846F75"/>
<path d="M57.1822 42.3062H55.3593C55.0896 42.3062 54.8711 42.5247 54.8711 42.7944V44.2269H49.3046V42.7944C49.3046 42.5247 49.0861 42.3062 48.8164 42.3062H47.2539V40.4722C47.2539 40.2024 47.0353 39.9839 46.7656 39.9839C46.4959 39.9839 46.2773 40.2024 46.2773 40.4722V42.7944V53.2112V56.5837H24.5972V40.4724C24.5972 40.2026 24.3787 39.9841 24.1089 39.9841C23.8392 39.9841 23.6207 40.2026 23.6207 40.4724V57.072C23.6207 57.3417 23.8392 57.5603 24.1089 57.5603H46.7656C47.0353 57.5603 47.2539 57.3417 47.2539 57.072V53.6995H57.1822C57.4519 53.6995 57.6705 53.481 57.6705 53.2112V42.7944C57.6705 42.5247 57.4519 42.3062 57.1822 42.3062ZM56.6939 52.7229H47.2539V43.2827H48.3281V44.7151C48.3281 44.9849 48.5466 45.2034 48.8164 45.2034H55.3593C55.6291 45.2034 55.8476 44.9849 55.8476 44.7151V43.2827H56.6939V52.7229Z" fill="#846F75"/>
<path d="M30.1639 32.1588H40.7108C40.9805 32.1588 41.1991 31.9402 41.1991 31.6705V15.9111C41.1991 15.6414 40.9805 15.4229 40.7108 15.4229H30.1639C29.8942 15.4229 29.6756 15.6414 29.6756 15.9111V31.6705C29.6756 31.9402 29.8942 32.1588 30.1639 32.1588ZM30.6522 16.3994H40.2225V31.1822H30.6522V16.3994Z" fill="#846F75"/>
<path d="M43.0547 24.2793H51.4858V38.9211H49.7412C49.5604 38.9211 49.3945 39.0209 49.3098 39.1805C49.225 39.34 49.2356 39.5336 49.3371 39.6832L51.5699 42.9791C51.6608 43.1133 51.8121 43.1936 51.974 43.1936C52.136 43.1936 52.2873 43.1133 52.3781 42.9791L54.611 39.6832C54.7125 39.5334 54.7229 39.34 54.6383 39.1805C54.5535 39.0209 54.3877 38.9211 54.2069 38.9211H52.4623V23.791C52.4623 23.5213 52.2438 23.3027 51.974 23.3027H43.0547C42.785 23.3027 42.5664 23.5213 42.5664 23.791C42.5664 24.0607 42.785 24.2793 43.0547 24.2793ZM51.974 41.8348L50.6617 39.8977H53.2863L51.974 41.8348Z" fill="#846F75"/>
<path d="M32.5728 20.3335H36.414C36.6838 20.3335 36.9023 20.1149 36.9023 19.8452C36.9023 19.5755 36.6838 19.3569 36.414 19.3569H32.5728C32.3031 19.3569 32.0845 19.5755 32.0845 19.8452C32.0845 20.1149 32.3031 20.3335 32.5728 20.3335Z" fill="#846F75"/>
<path d="M38.5298 23.5889H32.5728C32.3031 23.5889 32.0845 23.8074 32.0845 24.0771C32.0845 24.3469 32.3031 24.5654 32.5728 24.5654H38.5298C38.7996 24.5654 39.0181 24.3469 39.0181 24.0771C39.0181 23.8074 38.7996 23.5889 38.5298 23.5889Z" fill="#846F75"/>
<path d="M38.5298 25.542H32.5728C32.3031 25.542 32.0845 25.7605 32.0845 26.0303C32.0845 26.3 32.3031 26.5186 32.5728 26.5186H38.5298C38.7996 26.5186 39.0181 26.3 39.0181 26.0303C39.0181 25.7605 38.7996 25.542 38.5298 25.542Z" fill="#846F75"/>
<path d="M38.5298 27.4951H32.5728C32.3031 27.4951 32.0845 27.7137 32.0845 27.9834C32.0845 28.2531 32.3031 28.4717 32.5728 28.4717H38.5298C38.7996 28.4717 39.0181 28.2531 39.0181 27.9834C39.0181 27.7137 38.7996 27.4951 38.5298 27.4951Z" fill="#846F75"/>
<path d="M51.974 45.8765C50.2209 45.8765 48.7949 47.3026 48.7949 49.0554C48.7949 50.8083 50.2211 52.2345 51.974 52.2345C53.727 52.2345 55.1529 50.8083 55.1529 49.0554C55.1529 47.3026 53.727 45.8765 51.974 45.8765ZM51.974 51.2581C50.7594 51.2581 49.7715 50.27 49.7715 49.0556C49.7715 47.8411 50.7596 46.8532 51.974 46.8532C53.1885 46.8532 54.1764 47.8413 54.1764 49.0556C54.1764 50.27 53.1885 51.2581 51.974 51.2581Z" fill="#846F75"/>
<path d="M51.6635 50.4763C51.5234 50.4763 51.3902 50.4161 51.2972 50.311L50.4512 49.3523C50.2728 49.1501 50.2922 48.8415 50.4943 48.663C50.6965 48.4847 51.0051 48.5038 51.1836 48.7062L51.6605 49.247L52.789 47.948C52.966 47.7443 53.274 47.7226 53.4779 47.8995C53.6814 48.0765 53.7031 48.3849 53.5263 48.5884L52.032 50.3085C51.9396 50.4148 51.806 50.4759 51.6652 50.4765C51.6648 50.4763 51.664 50.4763 51.6635 50.4763Z" fill="url(#paint1_linear)"/>
<defs>
<linearGradient id="paint0_linear" x1="19.2085" y1="46.792" x2="48.7673" y2="57.5567" gradientUnits="userSpaceOnUse">
<stop stop-color="#8AC44B"/>
<stop offset="1" stop-color="#86E124"/>
</linearGradient>
<linearGradient id="paint1_linear" x1="49.6117" y1="46.3142" x2="54.4294" y2="46.9486" gradientUnits="userSpaceOnUse">
<stop stop-color="#8AC44B"/>
<stop offset="1" stop-color="#86E124"/>
</linearGradient>
</defs>
</svg>
