<svg width="74" height="74" viewBox="0 0 74 74" fill="none" xmlns="http://www.w3.org/2000/svg">
<circle cx="37" cy="37" r="37" fill="white"/>
<path d="M27.2666 43.9118C27.9132 43.2651 28.9619 43.2651 29.6086 43.9118C30.2553 44.5584 30.2553 45.6071 29.6086 46.254L31.0231 44.8403C31.3486 44.5148 31.7761 44.3535 32.2028 44.3556L23.8555 36.0083L21.9066 37.9571L24.937 40.9875L26.8236 44.3548L27.2666 43.9118Z" fill="#EBE7F2"/>
<path d="M40.9059 52.0261L40.0827 51.2026L40.0199 51.2832C40.3031 51.8955 40.1922 52.6449 39.6873 53.1496C39.2864 53.5505 38.7313 53.7028 38.2131 53.6067L38.0335 53.8377L38.5639 54.3682C39.2106 55.0148 40.2593 55.0148 40.9062 54.3682C41.5528 53.7215 41.5528 52.6728 40.9059 52.0261Z" fill="#EBE7F2"/>
<path d="M43.6806 50.1157L43.6186 50.1308C43.2406 50.2225 42.9401 50.4885 42.7602 50.8335C42.6698 51.0073 42.5463 51.1685 42.3896 51.3075C41.7277 51.8963 40.7063 51.8254 40.0796 51.199L39.9114 51.031L39.9108 51.0312L41.3382 52.4577C41.9849 53.1044 43.0335 53.1044 43.6802 52.4577C44.3275 51.8113 44.3275 50.7626 43.6806 50.1157Z" fill="#EBE7F2"/>
<path d="M46.3056 48.0562L46.2208 48.0712C45.86 48.1354 45.5704 48.3844 45.414 48.7157C45.3347 48.8835 45.2258 49.041 45.087 49.1798C44.4404 49.8265 43.3919 49.8265 42.7452 49.18L44.6494 51.0842C45.2606 51.6954 46.3056 51.2625 46.3056 50.3982C46.9525 49.7515 46.9525 48.7028 46.3056 48.0562Z" fill="#EBE7F2"/>
<path d="M49.1611 46.2271L49.1257 46.2309C48.7462 46.2724 48.4358 46.5255 48.2762 46.8722C48.1917 47.0559 48.0716 47.2274 47.9163 47.3762C47.2582 48.0066 46.1995 47.9499 45.5552 47.3056L44.9379 46.6883L46.7697 48.5201C47.411 49.1614 48.4642 49.2263 49.1244 48.6047C49.8076 47.9613 49.8196 46.8858 49.1611 46.2271Z" fill="#EBE7F2"/>
<path d="M29.6088 46.2534L29.537 46.3252L29.6088 46.2534Z" fill="#EBE7F2"/>
<path d="M29.5371 46.325C28.8904 46.9717 27.8417 46.9717 27.1948 46.325C26.5484 45.6783 26.5482 44.6301 27.1944 43.9834L25.6022 45.5756C24.9555 46.2223 24.9555 47.2709 25.6022 47.9176C26.2489 48.5643 27.2975 48.5643 27.9444 47.9176L29.5371 46.325Z" fill="#EBE7F2"/>
<path d="M34.1033 53.4709C33.4758 52.8433 33.4573 51.8374 34.0475 51.1875C34.0275 51.2055 34.008 51.2242 33.9886 51.2436L32.5107 52.7217C31.864 53.3684 31.864 54.417 32.5107 55.0637C33.1574 55.7104 34.206 55.7104 34.8527 55.0637L36.3308 53.5858C36.3502 53.5665 36.3687 53.5469 36.3869 53.5269C35.7368 54.1169 34.7309 54.0984 34.1033 53.4709Z" fill="#EBE7F2"/>
<path d="M31.3808 49.1662C30.7342 49.8129 29.6855 49.8129 29.0388 49.1662C28.3921 48.5195 28.3921 47.4709 29.0388 46.8242L27.4462 48.4168C26.7995 49.0635 26.7995 50.1122 27.4462 50.7589C28.0929 51.4055 29.1415 51.4055 29.7882 50.7589L31.3808 49.1662Z" fill="#EBE7F2"/>
<path d="M34.9475 50.2847C34.9477 50.2847 34.9477 50.2844 34.9477 50.2844L33.7231 51.5091C33.0764 52.1557 32.0277 52.1557 31.3808 51.5091C30.7342 50.8624 30.7342 49.8137 31.3808 49.167L32.605 47.9429L29.788 50.7599C29.1413 51.4066 29.1413 52.4552 29.788 53.1019C30.4347 53.7486 31.4833 53.7486 32.13 53.1019L34.9475 50.2847Z" fill="#EBE7F2"/>
<path d="M25.3225 34.5412L21.1079 38.7555C20.9603 38.9031 20.7209 38.9031 20.5733 38.7555L15.9117 34.0938C15.7641 33.9462 15.7641 33.7069 15.9117 33.5593L20.1262 29.3447L25.3225 34.5412Z" fill="#EBE7F2"/>
<path d="M53.8922 38.1504L50.7224 34.9806L55.9188 29.7842L59.0886 32.954C59.2362 33.1016 59.2362 33.3409 59.0886 33.4885L54.4269 38.1502C54.2791 38.298 54.0398 38.298 53.8922 38.1504Z" fill="#EBE7F2"/>
<path d="M51.2683 35.5274L50.7224 34.9814L44.2717 41.4321L47.3466 44.507L50.4726 39.6807L52.9471 37.2062L51.2683 35.5274Z" fill="#EBE7F2"/>
<path d="M59.4682 32.5747L48.7763 21.8825C48.4192 21.5261 47.8389 21.5261 47.4823 21.8827L42.8206 26.5444C42.4638 26.9013 42.4638 27.4818 42.8206 27.8386L43.0825 28.1005L40.4032 30.7799H36.9479C36.3731 30.7799 35.8322 30.9906 35.4079 31.372L33.6988 30.8194L31.7512 28.8718L32.1794 28.4436C32.3524 28.2707 32.4475 28.0408 32.4475 27.7963C32.4475 27.5518 32.3524 27.3219 32.1794 27.1492L27.5177 22.4875C27.345 22.3146 27.1151 22.2194 26.8706 22.2194C26.6261 22.2194 26.3965 22.3146 26.2235 22.4875L15.5316 33.1794C15.1747 33.5363 15.1747 34.1168 15.5316 34.4737L20.1933 39.1353C20.3716 39.3139 20.606 39.403 20.8404 39.403C21.0748 39.403 21.3092 39.3139 21.4875 39.1353L21.9066 38.7162L24.5048 41.3143L25.4505 43.0023C25.5489 43.1781 25.7315 43.2771 25.9197 43.2771C26.0087 43.2771 26.0987 43.255 26.1816 43.2086C26.4405 43.0636 26.5327 42.7361 26.3876 42.4775L25.4056 40.7245C25.3815 40.6816 25.3517 40.642 25.3169 40.6072L22.6663 37.9567L30.9915 29.6313L33.0306 31.6704C33.0908 31.7305 33.1642 31.7754 33.245 31.8017L34.5478 32.223L30.7423 36.0283C29.9839 36.7869 29.8578 37.9675 30.4424 38.8359C30.8188 39.3951 31.4141 39.7526 32.0754 39.8164C32.7369 39.8804 33.3857 39.6478 33.8552 39.1781L37.5567 35.4768L46.9662 44.8861C47.0674 44.9875 47.2043 45.0433 47.3461 45.0433C47.3648 45.0433 47.3837 45.0425 47.4026 45.0403C47.5639 45.0234 47.7087 44.9342 47.797 44.7982L50.8921 40.0199L52.9466 37.9651L53.5119 38.5303V38.5306C53.6904 38.7087 53.9246 38.7978 54.159 38.7978C54.3934 38.7978 54.6278 38.7087 54.8061 38.5303L59.4678 33.8689C59.6407 33.6959 59.7359 33.4663 59.7359 33.2216C59.7359 32.9768 59.6412 32.7474 59.4682 32.5747ZM16.4039 33.8266L26.8708 23.3596L31.3074 27.7963L20.8406 38.2633L16.4039 33.8266ZM50.0926 39.3006C50.066 39.3272 50.0422 39.3566 50.0215 39.3884L47.2567 43.657L37.937 34.3375C37.8322 34.2326 37.6947 34.1802 37.5572 34.1802C37.4197 34.1802 37.2822 34.2326 37.1773 34.3375L33.0959 38.4188C32.8542 38.6605 32.5199 38.7802 32.1792 38.7473C31.8335 38.7138 31.5332 38.5323 31.3338 38.236C31.0354 37.793 31.1063 37.1839 31.5022 36.788L36.0743 32.2159C36.3076 31.9826 36.6179 31.8541 36.9476 31.8541H40.6253C40.7678 31.8541 40.9044 31.7976 41.0052 31.6968L43.8418 28.8602L48.0147 33.0329L52.1876 37.2058L50.0926 39.3006ZM54.2718 37.7709L54.2711 37.7702C54.2716 37.7704 54.2716 37.7707 54.2718 37.7709ZM54.1594 37.6585L53.3269 36.826L47.7599 31.2592L43.6924 27.1917L48.1292 22.755L58.5962 33.222L54.1594 37.6585Z" fill="#846F75"/>
<path d="M35.6341 50.2758C36.1635 49.4293 36.0625 48.2982 35.3271 47.5626C35.0003 47.2356 34.5947 47.0347 34.171 46.9578C34.3113 46.6656 34.3876 46.3444 34.3876 46.0107C34.3876 45.4249 34.1594 44.8742 33.7452 44.46C32.8903 43.6049 31.4986 43.6049 30.6435 44.46L30.5606 44.5429C30.4671 44.1723 30.278 43.8208 29.9884 43.5314C29.1336 42.6764 27.7418 42.6764 26.8867 43.5314L25.2223 45.1958C24.3673 46.0509 24.3673 47.4422 25.2223 48.2975C25.5871 48.6626 26.0499 48.8703 26.5269 48.9238C26.4596 49.1361 26.4237 49.3593 26.4237 49.5883C26.4237 50.1742 26.6519 50.7251 27.0661 51.1391C27.4937 51.5666 28.0553 51.7804 28.6169 51.7804C28.6695 51.7804 28.7219 51.7765 28.7743 51.7729C28.7305 52.3858 28.9406 53.0136 29.4081 53.4813C29.8357 53.9088 30.3973 54.1226 30.9589 54.1226C31.1396 54.1226 31.3196 54.0981 31.496 54.0539C31.534 54.5787 31.7547 55.0675 32.1304 55.4432C32.5446 55.8575 33.0955 56.0856 33.6814 56.0856C34.2673 56.0856 34.8181 55.8575 35.2321 55.4432L36.71 53.9653C37.5651 53.1103 37.5651 51.7187 36.71 50.8636C36.4043 50.5573 36.0288 50.3626 35.6341 50.2758ZM25.982 45.9555L27.6464 44.2911C27.8647 44.0731 28.1511 43.9639 28.4377 43.9639C28.7243 43.9639 29.0109 44.0731 29.229 44.2911C29.6653 44.7275 29.6653 45.4373 29.229 45.8737L27.5646 47.5381C27.1282 47.9742 26.4184 47.9742 25.982 47.5381C25.5457 47.1017 25.5457 46.3917 25.982 45.9555ZM27.8258 50.3794C27.6144 50.1682 27.4982 49.887 27.4982 49.5881C27.4982 49.2893 27.6144 49.0082 27.8258 48.7968L31.403 45.2195C31.6212 45.0014 31.9076 44.8923 32.1942 44.8923C32.4806 44.8923 32.7672 45.0014 32.9855 45.2195C33.1969 45.4307 33.3131 45.7119 33.3131 46.0107C33.3131 46.3096 33.1969 46.5906 32.9855 46.802V46.8022L29.4083 50.3794C28.972 50.8157 28.2622 50.8157 27.8258 50.3794ZM30.168 52.7218C29.7317 52.2855 29.7317 51.5756 30.168 51.1391L32.9851 48.322C33.2033 48.104 33.4897 47.9948 33.7763 47.9948C34.0629 47.9948 34.3493 48.104 34.5676 48.322C35.004 48.7584 35.004 49.4682 34.5676 49.9048L31.7506 52.7218C31.3144 53.158 30.6046 53.158 30.168 52.7218ZM35.951 53.2056L34.4729 54.6836C34.2617 54.895 33.9804 55.0112 33.6816 55.0112C33.3827 55.0112 33.1017 54.8947 32.8903 54.6833C32.6789 54.4721 32.5627 54.1911 32.5627 53.8921C32.5627 53.5932 32.6791 53.3122 32.8903 53.1008L34.3682 51.6229C34.5865 51.4048 34.8729 51.2957 35.1595 51.2957C35.4461 51.2957 35.7325 51.4048 35.9508 51.6229C36.3873 52.0595 36.3873 52.7695 35.951 53.2056Z" fill="#846F75"/>
<path d="M48.7812 45.8472C48.5713 46.0568 48.5713 46.3969 48.7812 46.6066C48.9924 46.818 49.1089 47.099 49.1089 47.3979C49.1089 47.6967 48.9924 47.9778 48.7812 48.1892C48.5698 48.4006 48.2888 48.517 47.99 48.517C47.6909 48.517 47.4101 48.4006 47.1985 48.1892L45.3175 46.3084C45.1076 46.0985 44.7677 46.0985 44.5581 46.3084C44.3484 46.5181 44.3484 46.8582 44.5581 47.0679L45.9255 48.4352L45.926 48.4356C46.3621 48.8719 46.3621 49.5818 45.926 50.0181C45.7146 50.2295 45.4335 50.346 45.1345 50.346C44.8356 50.346 44.5546 50.2295 44.3432 50.0183L42.7087 48.3838C42.4988 48.1739 42.1589 48.1739 41.9492 48.3838C41.7393 48.5935 41.7393 48.9336 41.9492 49.1433L43.2997 50.4936C43.3001 50.494 43.3006 50.4947 43.301 50.4953C43.5122 50.7065 43.6286 50.9877 43.6286 51.2866C43.6286 51.5854 43.5122 51.8664 43.301 52.0778C43.0896 52.2892 42.8086 52.4057 42.5095 52.4057C42.2107 52.4057 41.9299 52.2892 41.7182 52.0776L40.2906 50.6511C40.0807 50.4414 39.7406 50.4414 39.5309 50.6513C39.3212 50.8612 39.3212 51.2013 39.5311 51.411L39.7019 51.5815C39.7021 51.5818 39.7024 51.5822 39.7026 51.5824L40.5261 52.4057C40.9622 52.842 40.9622 53.5519 40.5261 53.9882C40.3147 54.1996 40.0337 54.3161 39.7346 54.3161C39.4357 54.3161 39.1547 54.1996 38.9433 53.9884L38.4129 53.458C38.203 53.2483 37.8631 53.2483 37.6534 53.458C37.4435 53.6677 37.4435 54.0078 37.6534 54.2175L38.1838 54.7479C38.5981 55.1621 39.1487 55.3903 39.7346 55.3903C40.3205 55.3903 40.8711 55.1621 41.2856 54.7479C41.6622 54.3713 41.8723 53.8907 41.9172 53.3976C42.1078 53.4509 42.3061 53.4801 42.5093 53.4801C43.0952 53.4801 43.646 53.252 44.0603 52.8377C44.4532 52.445 44.676 51.9292 44.6984 51.3772C44.8404 51.4058 44.9862 51.4206 45.1343 51.4206C45.7201 51.4206 46.2708 51.1925 46.6852 50.7782C47.0384 50.425 47.2548 49.9724 47.3115 49.4836C47.5278 49.5539 47.7558 49.5917 47.99 49.5917C48.5759 49.5917 49.1265 49.3633 49.5407 48.9493C49.9552 48.5351 50.1831 47.9842 50.1831 47.3983C50.1831 46.8124 49.9552 46.2618 49.5407 45.8476C49.3308 45.6375 48.9909 45.6375 48.7812 45.8472Z" fill="#846F75"/>
<path d="M37.5 20.6143C35.1365 20.6143 33.2206 22.5302 33.2206 24.8937C33.2206 27.2572 35.1365 29.1732 37.5 29.1732C39.8635 29.1732 41.7795 27.2572 41.7795 24.8937C41.7795 22.5302 39.8635 20.6143 37.5 20.6143ZM40.1817 24.3255L38.9908 25.1906C38.8847 25.2678 38.8402 25.4046 38.8808 25.5297L39.3356 26.9296C39.4263 27.2089 39.1068 27.4411 38.8692 27.2684L37.6783 26.4032C37.572 26.3261 37.4283 26.3261 37.3219 26.4032L36.131 27.2684C35.8934 27.4411 35.5737 27.2089 35.6646 26.9296L36.1194 25.5297C36.16 25.4046 36.1156 25.268 36.0092 25.1906L34.8183 24.3255C34.5807 24.1529 34.7028 23.7772 34.9964 23.7772H36.4686C36.5998 23.7772 36.7163 23.6925 36.7569 23.5677L37.2117 22.1678C37.3024 21.8885 37.6977 21.8885 37.7883 22.1678L38.2432 23.5677C38.2838 23.6925 38.4002 23.7772 38.5315 23.7772H40.0036C40.2973 23.7772 40.4193 24.1529 40.1817 24.3255Z" fill="url(#paint0_linear)"/>
<defs>
<linearGradient id="paint0_linear" x1="31.3693" y1="15.9627" x2="43.8733" y2="17.3013" gradientUnits="userSpaceOnUse">
<stop stop-color="#8AC44B"/>
<stop offset="1" stop-color="#86E124"/>
</linearGradient>
</defs>
</svg>
