<svg width="74" height="74" viewBox="0 0 74 74" fill="none" xmlns="http://www.w3.org/2000/svg">
<circle cx="37" cy="37" r="36" fill="white" stroke="#EEEEEE" stroke-width="2"/>
<g clip-path="url(#clip0)">
<path d="M38.7574 45.725C35.6997 45.7247 32.8912 44.0388 31.4526 41.3406C30.0143 38.6424 30.1804 35.3709 31.8847 32.832C29.1092 34.6963 27.7276 38.0471 28.3822 41.3256C29.0372 44.6044 31.6002 47.1674 34.879 47.8224C38.1575 48.4773 41.5083 47.0954 43.3725 44.3199C42.0089 45.2382 40.4015 45.7276 38.7574 45.725Z" fill="#D4E1F4"/>
<path d="M42.3284 46.2854C42.1288 46.2857 41.9372 46.2063 41.7964 46.0649L39.9694 44.2383C39.6757 43.9443 39.6757 43.4678 39.9694 43.1739C40.2634 42.8802 40.7399 42.8802 41.0338 43.1739L42.8605 45.0008C43.0757 45.216 43.14 45.5396 43.0236 45.8206C42.9072 46.102 42.6327 46.2854 42.3284 46.2854Z" fill="#8AC44B"/>
<path d="M32.4979 36.455C32.2983 36.4553 32.1069 36.376 31.9658 36.2349L30.1392 34.4079C29.8452 34.114 29.8452 33.6375 30.1392 33.3435C30.4332 33.0496 30.9097 33.0496 31.2033 33.3435L33.0303 35.1702C33.2454 35.3853 33.3098 35.709 33.1934 35.9903C33.0767 36.2716 32.8024 36.455 32.4979 36.4548V36.455Z" fill="#8AC44B"/>
<path d="M40.5018 36.455C40.1972 36.4553 39.923 36.2719 39.8063 35.9906C39.6899 35.7093 39.7542 35.3856 39.9694 35.1704L41.7964 33.3438C42.0912 33.0575 42.5615 33.061 42.8522 33.3517C43.143 33.6424 43.1468 34.1128 42.8605 34.4079L41.0338 36.2349C40.8927 36.376 40.7014 36.4553 40.5018 36.455Z" fill="#8AC44B"/>
<path d="M30.6713 46.2854C30.367 46.2854 30.0925 46.102 29.9761 45.8206C29.8596 45.5396 29.924 45.216 30.1392 45.0008L31.9658 43.1739C32.2598 42.8802 32.7363 42.8802 33.0303 43.1739C33.3239 43.4678 33.3239 43.9443 33.0303 44.2383L31.2033 46.0649C31.0625 46.2063 30.8709 46.2857 30.6713 46.2854Z" fill="#8AC44B"/>
<path d="M36.389 22.5881C39.1828 22.5881 41.9807 23.3806 44.4802 24.8803C46.1484 25.8836 47.6376 27.1588 48.8857 28.653L44.454 28.5069H44.4287C44.0187 28.5078 43.6847 28.837 43.678 29.2474C43.6712 29.6574 43.9946 29.9973 44.4043 30.0117L50.1594 30.2016C50.4446 30.3288 50.7785 30.2671 50.999 30.0463C51.2197 29.8253 51.2812 29.4914 51.1533 29.2065L50.9634 23.4523C50.9543 23.0366 50.6098 22.7071 50.1941 22.7165C49.7785 22.7256 49.4492 23.0702 49.4583 23.4858C49.4583 23.4911 49.4583 23.4964 49.4589 23.5017L49.5795 27.1556C48.321 25.7605 46.8636 24.5588 45.2545 23.5896C42.5213 21.9496 39.4556 21.083 36.3887 21.083C31.4899 21.083 26.9733 23.1031 23.6722 26.7708C22.1991 28.4146 21.028 30.3053 20.2123 32.3563C19.4192 34.3602 19 36.4752 19 38.472C19 38.8877 19.3369 39.2246 19.7525 39.2246C20.1682 39.2246 20.5051 38.8877 20.5051 38.472C20.5051 34.7576 22.1071 30.7595 24.791 27.7779C27.8028 24.4309 31.9218 22.5881 36.389 22.5881Z" fill="#999999"/>
<path d="M53.2472 37.7192C52.8315 37.7192 52.4946 38.0561 52.4946 38.4718C52.4946 42.1862 50.8926 46.184 48.2087 49.1659C45.1969 52.5126 41.0779 54.3557 36.6107 54.3557C33.8169 54.3557 31.019 53.5629 28.5195 52.0635C26.8513 51.0599 25.3621 49.7847 24.1143 48.2905L28.5457 48.4366C28.9601 48.449 29.3064 48.1238 29.3202 47.7094C29.3338 47.2949 29.0095 46.9474 28.5953 46.9324L22.8403 46.7425C22.5554 46.6156 22.2215 46.6773 22.001 46.898C21.7805 47.1188 21.7194 47.4527 21.847 47.7376L22.0369 53.4915C22.0425 53.7605 22.1912 54.0062 22.4272 54.1356C22.663 54.2652 22.9502 54.2587 23.1801 54.1188C23.4102 53.9789 23.5478 53.727 23.5413 53.458C23.5413 53.4524 23.5413 53.4471 23.541 53.4418L23.4205 49.7882C24.6787 51.1831 26.1361 52.3848 27.7455 53.3539C30.4787 54.9939 33.5444 55.8608 36.611 55.8608C41.51 55.8608 46.0267 53.8407 49.3278 50.1727C50.8006 48.5289 51.9717 46.6382 52.7874 44.5875C53.5808 42.5833 54 40.4686 54 38.4718C54 38.0561 53.6631 37.7192 53.2475 37.7192H53.2472Z" fill="#999999"/>
<path d="M37.2524 39.4603V36.566C37.2524 36.1504 36.9155 35.8135 36.4998 35.8135C36.0842 35.8135 35.7473 36.1504 35.7473 36.566V39.7869C35.7473 39.9953 35.8337 40.1943 35.986 40.3366L38.6231 42.8005C38.9244 43.0869 39.4006 43.0748 39.6869 42.7735C39.9732 42.4722 39.9612 41.9957 39.6599 41.7094L39.6505 41.7008L37.2524 39.4603Z" fill="#8AC44B"/>
<path d="M27.4695 39.7046C27.4695 44.5942 31.3612 48.5953 36.2488 48.7314C41.1364 48.8672 45.2445 45.0884 45.5164 40.2063C45.788 35.3246 42.125 31.1131 37.2524 30.7057V29.7424H38.2007C38.616 29.7424 38.9532 29.4055 38.9532 28.9898C38.9532 28.5742 38.616 28.2373 38.2007 28.2373H34.7999C34.3842 28.2373 34.0474 28.5742 34.0474 28.9898C34.0474 29.4055 34.3842 29.7424 34.7999 29.7424H35.7473V30.7057C31.0707 31.1022 27.4751 35.0112 27.4695 39.7046ZM43.9875 38.9232H42.1594C41.7437 38.9232 41.4069 39.2601 41.4069 39.6758C41.4069 40.0914 41.7437 40.4283 42.1594 40.4283H43.9875C43.648 44.0031 40.8257 46.8374 37.2524 47.1925V45.3638C37.2524 44.9482 36.9155 44.6113 36.4998 44.6113C36.0842 44.6113 35.7473 44.9482 35.7473 45.3638V47.1925C32.174 46.8374 29.3517 44.0031 29.0122 40.4283H30.8409C31.2565 40.4283 31.5934 40.0914 31.5934 39.6758C31.5934 39.2601 31.2565 38.9232 30.8409 38.9232H29.0122C29.3664 35.3863 32.1975 32.5708 35.7473 32.2169V34.045C35.7473 34.4607 36.0842 34.7975 36.4998 34.7975C36.9155 34.7975 37.2524 34.4607 37.2524 34.045V32.2169C40.8022 32.5708 43.6339 35.3863 43.9875 38.9232Z" fill="#999999"/>
</g>
<defs>
<clipPath id="clip0">
<rect width="35" height="35" fill="white" transform="translate(19 21)"/>
</clipPath>
</defs>
</svg>
